<svg id="icons" enable-background="new 0 0 64 64" height="512" viewBox="0 0 64 64" width="512" xmlns="http://www.w3.org/2000/svg"><path d="m1 58c0 .55.45 1 1 1h60c.55 0 1-.45 1-1v-49h-62z" fill="#e6e9ed"/><path d="m63 7v2h-62v-2c0-1.109.89-2 2-2h58c1.11 0 2 .891 2 2z" fill="#ccd1d9"/><path d="m4.006 5.998h-.01c-.553 0-.995.447-.995 1 0 .552.452 1 1.005 1s1-.448 1-1c0-.553-.447-1-1-1z" fill="#e6e9ed"/><path d="m7.005 5.998h-.01c-.552 0-.995.447-.995 1 0 .552.453 1 1.005 1 .553 0 1-.448 1-1 0-.553-.447-1-1-1z" fill="#e6e9ed"/><path d="m10.008 5.998h-.01c-.553 0-.995.447-.995 1 0 .552.452 1 1.005 1s1-.448 1-1c0-.553-.447-1-1-1z" fill="#e6e9ed"/><path d="m53.83 43.83 2.83 2.83c-1.45 1.44-3.45 2.34-5.66 2.34-4.42 0-8-3.58-8-8s3.58-8 8-8v4c-2.21 0-4 1.79-4 4s1.79 4 4 4c1.1 0 2.1-.45 2.83-1.17z" fill="#5d9cec"/><path d="m51 33c4.42 0 8 3.58 8 8 0 2.21-.9 4.21-2.34 5.66l-2.83-2.83c.72-.73 1.17-1.73 1.17-2.83 0-2.21-1.79-4-4-4z" fill="#a0d468"/><path d="m55 21h4c0 4.42-3.58 8-8 8v-4c2.21 0 4-1.79 4-4z" fill="#a0d468"/><path d="m59 21h-4c0-2.21-1.79-4-4-4s-4 1.79-4 4 1.79 4 4 4v4c-4.42 0-8-3.58-8-8s3.58-8 8-8 8 3.58 8 8z" fill="#5d9cec"/><path d="m37.59 22-11.26 6.5c-.87-1.5-2.48-2.5-4.33-2.5v-13c3.06-.01 6.16.77 9 2.41s5.07 3.94 6.59 6.59z" fill="#48cfad"/><path d="m22 13v13c-2.76 0-5 2.24-5 5 0 1.85 1 3.46 2.5 4.33l-6.5 11.26c-8.61-4.97-11.56-15.98-6.59-24.59 3.33-5.77 9.38-8.99 15.59-9z" fill="#5d9cec"/><path d="m37.59 22c3.101 5.38 3.33 12.23 0 18-4.97 8.61-15.98 11.56-24.59 6.59l6.5-11.26c.73.43 1.59.67 2.5.67 2.76 0 5-2.24 5-5 0-.91-.24-1.77-.67-2.5z" fill="#a0d468"/><g fill="#ccd1d9"><path d="m6.03 55.998c-.553 0-1.005-.447-1.005-1s.442-1 .994-1h.011c.552 0 1 .447 1 1s-.448 1-1 1z"/><path d="m18.999 55.998h-9.999c-.553 0-1-.447-1-1s.447-1 1-1h9.999c.553 0 1 .447 1 1s-.447 1-1 1z"/><path d="m25.518 55.998c-.553 0-1.004-.447-1.004-1s.441-1 .994-1h.01c.553 0 1 .447 1 1s-.448 1-1 1z"/><path d="m38.486 55.998h-9.998c-.553 0-1-.447-1-1s.447-1 1-1h9.998c.553 0 1 .447 1 1s-.447 1-1 1z"/><path d="m45.027 55.998c-.553 0-1.005-.447-1.005-1s.442-1 .994-1h.011c.552 0 1 .447 1 1s-.448 1-1 1z"/><path d="m57.996 55.998h-9.999c-.553 0-1-.447-1-1s.447-1 1-1h9.999c.553 0 1 .447 1 1s-.447 1-1 1z"/></g></svg>