<svg height="512pt" viewBox="0 0 512 512" width="512pt" xmlns="http://www.w3.org/2000/svg"><path d="m350.039062 361.6875 16.480469 16.476562 16.785157-58.324218-73.019532 21.015625-7.203125 7.207031 13.332031 13.332031-110.019531 110.023438-131.164062-131.164063-.277344 26.972656 134.773437 134.773438zm0 0" fill="#feda9b"/><path d="m40 10h34v491h-34zm0 0" fill="#ffefd5"/><path d="m502 165.546875c0 1.449219-55.078125 77.464844-123 77.464844s-123-76.5-123-77.464844c0-1.449219 55.078125-77.464844 123-77.464844s123 76.5 123 77.464844zm0 0" fill="#fff"/><path d="m402.890625 133.460938c-18.859375 3.222656-33.222656 19.636718-33.222656 39.417968 0 13.136719 6.332031 24.792969 16.109375 32.082032 18.863281-3.21875 33.226562-19.636719 33.226562-39.414063 0-13.136719-6.332031-24.792969-16.113281-32.085937zm0 0" fill="#4dbaf6"/><path d="m271.421875 430.308594c-2.632813 0-5.210937 1.0625-7.070313 2.921875-1.863281 1.859375-2.929687 4.441406-2.929687 7.070312 0 2.640625 1.066406 5.21875 2.929687 7.070313 1.859376 1.867187 4.4375 2.9375 7.070313 2.9375 2.636719 0 5.207031-1.070313 7.066406-2.9375 1.871094-1.859375 2.933594-4.433594 2.933594-7.070313 0-2.628906-1.0625-5.210937-2.933594-7.070312-1.859375-1.859375-4.429687-2.921875-7.066406-2.921875zm0 0"/><path d="m389.652344 278.566406-89.988282 25.898438c-3.398437.980468-6.03125 3.683594-6.917968 7.113281-.882813 3.425781.109375 7.066406 2.613281 9.570313l10.246094 10.246093-95.878907 95.878907-125.726562-125.726563v-251.546875c0-5.523438-4.476562-10-10-10s-10 4.476562-10 10v100.253906h-13.28125c-5.523438 0-10 4.476563-10 10 0 5.523438 4.476562 10 10 10h13.28125v172h-13.28125c-5.523438 0-10 4.476563-10 10 0 5.523438 4.476562 10 10 10h13.28125v139.746094c0 5.523438 4.476562 10 10 10s10-4.476562 10-10v-111.585938l118.65625 118.65625c1.953125 1.953126 4.511719 2.929688 7.070312 2.929688 2.558594 0 5.117188-.976562 7.070313-2.929688l33.023437-33.023437c3.90625-3.902344 3.90625-10.234375 0-14.140625s-10.234374-3.90625-14.140624 0l-25.953126 25.953125-125.726562-125.726563v-32.300781l118.65625 118.65625c1.875 1.875 4.417969 2.929688 7.070312 2.929688 2.652344 0 5.195313-1.054688 7.070313-2.929688l110.023437-110.023437c3.90625-3.902344 3.90625-10.234375 0-14.140625l-5.328124-5.328125 56.316406-16.207032-16.207032 56.316407-4.488281-4.488281c-1.875-1.875-4.421875-2.929688-7.074219-2.929688-2.648437 0-5.195312 1.054688-7.070312 2.929688l-50.722656 50.722656c-3.902344 3.902344-3.902344 10.234375 0 14.140625 3.90625 3.90625 10.238281 3.90625 14.144531 0l43.648437-43.648438 9.410157 9.40625c2.503906 2.503907 6.144531 3.5 9.570312 2.613281 3.425781-.886718 6.132813-3.515624 7.109375-6.917968l25.902344-89.988282c1.003906-3.496093.03125-7.265624-2.539062-9.839843-2.574219-2.570313-6.339844-3.542969-9.839844-2.539063zm0 0"/><path d="m74 20c2.628906 0 5.210938-1.070312 7.070312-2.929688 1.859376-1.859374 2.929688-4.441406 2.929688-7.070312s-1.070312-5.210938-2.929688-7.070312c-1.859374-1.859376-4.441406-2.929688-7.070312-2.929688s-5.210938 1.070312-7.070312 2.929688c-1.859376 1.859374-2.929688 4.441406-2.929688 7.070312s1.070312 5.210938 2.929688 7.070312c1.859374 1.859376 4.441406 2.929688 7.070312 2.929688zm0 0"/><path d="m379.003906 115.546875c-27.570312 0-50 22.429687-50 50 0 27.566406 22.429688 50 50 50 27.566406 0 50-22.433594 50-50 0-27.570313-22.433594-50-50-50zm0 80c-16.542968 0-30-13.460937-30-30 0-16.542969 13.457032-30 30-30 16.539063 0 30 13.457031 30 30 0 16.539063-13.460937 30-30 30zm0 0"/><path d="m499.945312 146.550781c-5.816406-6.828125-15.296874-17.167969-27.433593-27.660156-30.875-26.699219-63.210938-40.808594-93.511719-40.808594-38.332031 0-72.003906 22.085938-93.5 40.613281-12.222656 10.535157-21.675781 20.859376-27.457031 27.664063-12.042969 14.183594-12.042969 16.390625-12.042969 19.1875 0 2.8125 0 4.84375 12.054688 18.996094 5.816406 6.828125 15.296874 17.167969 27.433593 27.660156 30.875 26.695313 63.210938 40.808594 93.511719 40.808594 38.332031 0 72.003906-22.085938 93.5-40.613281 12.222656-10.535157 21.679688-20.859376 27.457031-27.664063 12.042969-14.183594 12.042969-16.390625 12.042969-19.1875 0-2.8125 0-4.84375-12.054688-18.996094zm-120.945312 86.460938c-53.042969 0-98.023438-51.566407-110.738281-67.667969 13.476562-17.550781 59.507812-67.261719 110.738281-67.261719 53.042969 0 98.023438 51.566407 110.738281 67.667969-13.476562 17.550781-59.507812 67.261719-110.738281 67.261719zm0 0"/><path d="m379.625 52.148438c5.523438 0 10-4.476563 10-10v-32.148438c0-5.523438-4.476562-10-10-10s-10 4.476562-10 10v32.148438c0 5.523437 4.476562 10 10 10zm0 0"/><path d="m296.878906 71.140625c1.953125 1.953125 4.511719 2.929687 7.070313 2.929687 2.558593 0 5.117187-.976562 7.070312-2.929687 3.90625-3.90625 3.90625-10.238281 0-14.144531l-26.078125-26.074219c-3.902344-3.90625-10.234375-3.90625-14.140625 0-3.90625 3.902344-3.90625 10.234375 0 14.140625zm0 0"/><path d="m453.179688 73.960938c2.558593 0 5.117187-.976563 7.070312-2.929688l26.949219-26.949219c3.90625-3.902343 3.90625-10.234375 0-14.140625s-10.238281-3.90625-14.144531 0l-26.949219 26.949219c-3.902344 3.90625-3.902344 10.238281 0 14.140625 1.953125 1.953125 4.515625 2.929688 7.074219 2.929688zm0 0"/><path d="m33.28125 438.128906h-13.28125v-172h13.28125c5.523438 0 10-4.480468 10-10 0-5.523437-4.476562-10-10-10h-13.28125v-172h13.28125c5.523438 0 10-4.480468 10-10 0-5.523437-4.476562-10-10-10h-13.28125v-44.128906c0-5.523438-4.476562-10-10-10s-10 4.476562-10 10v492c0 5.523438 4.476562 10 10 10s10-4.476562 10-10v-43.871094h13.28125c5.523438 0 10-4.480468 10-10 0-5.523437-4.476562-10-10-10zm0 0"/></svg>