<svg height="512pt" viewBox="-27 0 512 512" width="512pt" xmlns="http://www.w3.org/2000/svg"><path d="m383.339844 386.15625-17.179688-21.847656-29.660156 38.085937h.003906c-6.511718 7.972657-10.421875 18.144531-10.421875 29.226563 0 10.945312 3.820313 20.996094 10.1875 28.921875 3.597657.890625 7.363281 1.375 11.238281 1.375 25.636719 0 46.417969-20.726563 46.417969-46.292969 0-11.195312-3.980469-21.460938-10.613281-29.46875zm0 0" fill="#72d8ff"/><path d="m445.171875 199.476562c-24.878906-1.113281-49.894531 2.828126-73.496094 11.800782l-33.808593 12.855468s-66.808594-12.429687-117.988282 13.996094l-5.917968 3.054688c-11.207032 5.789062-24.578126 5.546875-35.566407-.644532l1.980469-13.515624c-2.183594.972656-4.351562 2.003906-6.488281 3.105468l-5.917969 3.054688c-11.207031 5.789062-24.574219 5.546875-35.566406-.644532l18.246094-124.371093h33.71875c6.039062 0 11.875-2.15625 16.464843-6.078125l9.15625-7.824219c5.632813-4.816406 8.875-11.855469 8.875-19.265625v-33.296875c0-8.171875-3.9375-15.835937-10.578125-20.597656l-4.335937-3.109375h-28.9375c-17.46875 0-32.921875 11.320312-38.191407 27.976562l-77.152343 243.9375c-12.925781 40.871094 11.367187 84.164063 52.988281 94.425782 8.777344 2.164062 17.582031 4.140624 26.414062 5.96875 58.640626 8.265624 118.035157 9.3125 176.847657 3.152343 1.085937-1.769531 2.28125-3.460937 3.589843-5.058593h-.003906l29.660156-38.085938 17.179688 21.84375h-.027344c3.160156 3.816406 5.710938 8.148438 7.523438 12.847656 16.390625-3.070312 32.707031-6.699218 48.910156-10.910156l25.171875-6.542969v-167.210937c-.914063-.296875-1.832031-.578125-2.75-.863282zm0 0" fill="#feda9b"/><path d="m92.25 386.15625-16.144531-20.53125c-.289063.234375-.558594.507812-.800781.820312l-31.890626 40.949219h.003907c-6.515625 7.96875-10.421875 18.140625-10.421875 29.222657 0 7.835937 1.957031 15.210937 5.402344 21.679687 5.542968 2.328125 11.628906 3.617187 18.023437 3.617187 25.636719 0 46.417969-20.726562 46.417969-46.292968 0-11.191406-3.984375-21.457032-10.613282-29.464844zm0 0" fill="#72d8ff"/><path d="m237.921875 426.242188-16.34375-20.785157-26.496094 34.023438h.003907c-6.511719 7.972656-10.421876 18.144531-10.421876 29.226562 0 13.003907 5.386719 24.75 14.042969 33.160157 1.121094.078124 2.246094.132812 3.382813.132812 25.636718 0 46.421875-20.722656 46.421875-46.289062 0-11.195313-3.984375-21.460938-10.617188-29.46875zm0 0" fill="#ade5ff"/><path d="m64.664062 120.703125c1.003907.316406 2.019532.46875 3.015626.46875 4.246093 0 8.183593-2.726563 9.53125-6.984375l23.152343-73.195312c3.96875-12.558594 15.488281-20.996094 28.65625-20.996094h55.625c3.226563 0 6.320313.992187 8.941407 2.875l8.875 6.363281c4.007812 2.871094 6.402343 7.535156 6.402343 12.46875v33.300781c0 4.492188-1.957031 8.742188-5.375 11.660156l-9.152343 7.824219c-2.773438 2.375-6.316407 3.683594-9.96875 3.683594h-37.171876l-9.574218-10.847656c-3.65625-4.140625-9.972656-4.53125-14.113282-.878907-4.140624 3.65625-4.53125 9.972657-.878906 14.113282l12.5625 14.226562c1.070313 1.210938 2.414063 2.121094 3.886719 2.691406l-26.792969 172.234376c-.847656 5.457031 2.886719 10.570312 8.34375 11.417968.519532.082032 1.035156.121094 1.546875.121094 4.84375 0 9.101563-3.527344 9.867188-8.464844l7.289062-46.835937c11.039063 2.757812 22.820313 1.488281 33.222657-3.878907l5.917968-3.054687c48.417969-25 105.367188-23.429687 152.332032 4.207031l22.148437 13.03125c1.59375.9375 3.335937 1.382813 5.0625 1.382813 3.425781 0 6.761719-1.761719 8.625-4.929688 2.800781-4.757812 1.210937-10.886719-3.546875-13.6875l-22.148438-13.03125c-6.488281-3.820312-13.210937-7.210937-20.113281-10.164062l8.40625-3.199219c36.949219-14.046875 77.996094-15.039062 115.578125-2.777344 5.25 1.710938 10.894532-1.15625 12.605469-6.40625 1.714844-5.246094-1.152344-10.894531-6.402344-12.601562-41.910156-13.671875-87.683593-12.570313-128.890625 3.097656l-31.621094 12.023438c-11.394531-2.613282-23.046874-4.128907-34.777343-4.449219-29.929688-.824219-59.824219 5.996093-86.433594 19.734375l-5.914063 3.058594c-6.566406 3.390624-14.085937 3.957031-20.957031 1.75l16.78125-107.886719h25.15625c8.414063 0 16.570313-3.011719 22.964844-8.476563l9.152344-7.824218c7.867187-6.726563 12.378906-16.515626 12.378906-26.863282v-33.300781c0-11.363281-5.515625-22.101563-14.75-28.722656l-8.875-6.363281c-6.039063-4.328126-13.160156-6.617188-20.589844-6.617188h-55.625c-21.929687 0-41.109375 14.050781-47.722656 34.960938l-23.152344 73.195312c-1.664062 5.261719 1.253907 10.882812 6.519531 12.546875zm0 0"/><path d="m55.539062 159.535156c2.640626 0 5.210938-1.066406 7.082032-2.9375 1.859375-1.859375 2.917968-4.429687 2.917968-7.066406 0-2.632812-1.058593-5.199219-2.917968-7.070312-1.871094-1.859376-4.441406-2.929688-7.082032-2.929688-2.628906 0-5.199218 1.070312-7.066406 2.929688-1.859375 1.859374-2.921875 4.4375-2.921875 7.070312 0 2.636719 1.0625 5.21875 2.921875 7.066406 1.859375 1.871094 4.4375 2.9375 7.066406 2.9375zm0 0"/><path d="m445.402344 357.875-25.171875 6.542969c-11.507813 2.992187-23.214844 5.707031-34.878907 8.121093l-26.175781-33.289062c-2.871093-3.648438-7.171875-5.738281-11.8125-5.738281-.011719 0-.023437 0-.035156 0-4.65625.011719-8.960937 2.121093-11.820313 5.792969l-31.890624 40.949218c-.003907.007813-.007813.011719-.011719.015625-1.199219 1.484375-2.308594 3.027344-3.34375 4.617188-26.652344 2.238281-53.644531 2.988281-80.386719 2.226562l-6.117188-7.777343c-2.875-3.660157-7.222656-5.789063-11.847656-5.738282-4.65625.011719-8.960937 2.121094-11.820312 5.792969l-4.601563 5.910156c-30.636719-2.359375-61.34375-6.71875-91.414062-13l-25.988281-33.050781c-2.867188-3.648438-7.171876-5.738281-11.8125-5.738281-.011719 0-.023438 0-.035157 0-4.65625.011719-8.960937 2.121093-11.820312 5.792969l-6.886719 8.84375c-15.566406-16.738282-21.335938-41.050782-14.324219-63.222657l29.855469-94.390625c1.664062-5.265625-1.253906-10.882812-6.515625-12.546875-5.265625-1.664062-10.882813 1.25-12.550781 6.519531l-29.851563 94.390626c-5.265625 16.640624-5.269531 34.195312-.019531 50.765624 4.160156 13.113282 11.34375 24.863282 20.992188 34.425782l-12.589844 16.167968c-.003906.003907-.007813.007813-.011719.015626-8.074219 9.96875-12.515625 22.511718-12.515625 35.351562.00390625 31.035156 25.3125 56.289062 56.417969 56.289062 31.109375 0 56.421875-25.253906 56.421875-56.292968 0-6.871094-1.285156-13.648438-3.699219-19.996094 20.414063 3.695312 41.042969 6.542969 61.683594 8.503906l-12.625 16.210938c-.003907.007812-.007813.011718-.011719.015625-8.070312 9.972656-12.515625 22.515625-12.515625 35.351562 0 31.039063 25.3125 56.292969 56.421875 56.292969s56.417969-25.253906 56.417969-56.292969c0-12.816406-4.417969-25.3125-12.453125-35.277343-.089844-.121094-.183594-.246094-.277344-.367188l-9.96875-12.679688c1.445312.007813 2.890625.039063 4.335938.039063 17.296874 0 34.632812-.617187 51.859374-1.832031-.601562 3.296875-.917968 6.65625-.917968 10.03125 0 31.039062 25.308594 56.292968 56.417968 56.292968 31.109376 0 56.421876-25.253906 56.421876-56.292968 0-8.828125-2.097657-17.507813-6.03125-25.3125 9.167968-2.011719 18.324218-4.1875 27.367187-6.535156l25.171875-6.546876c5.34375-1.386718 8.550781-6.847656 7.160156-12.191406s-6.847656-8.542968-12.195312-7.160156zm-388.984375 94.042969c-20.082031 0-36.421875-16.28125-36.421875-36.296875 0-8.441406 2.824218-16.359375 8.164062-22.894532.101563-.121093.195313-.246093.289063-.371093l27.84375-35.75 27.6875 35.207031c.167969.246094.351562.488281.542969.722656 5.363281 6.476563 8.320312 14.675782 8.320312 23.089844 0 20.011719-16.339844 36.292969-36.425781 36.292969zm145.675781 40.085937c-20.085938 0-36.425781-16.28125-36.425781-36.296875 0-8.441406 2.824219-16.359375 8.167969-22.894531.097656-.121094.191406-.246094.285156-.371094l27.84375-35.753906 27.6875 35.210938c.167968.246093.351562.488281.542968.722656 5.363282 6.476562 8.320313 14.675781 8.320313 23.089844-.003906 20.011718-16.339844 36.292968-36.421875 36.292968zm145.414062-40.085937c-20.082031 0-36.421874-16.28125-36.421874-36.296875 0-8.441406 2.824218-16.359375 8.164062-22.894532.101562-.121093.195312-.246093.289062-.371093l27.84375-35.75 27.683594 35.207031c.171875.246094.355469.488281.546875.722656 5.363281 6.476563 8.316407 14.675782 8.316407 23.089844 0 20.011719-16.335938 36.292969-36.421876 36.292969zm0 0"/><path d="m271.015625 337.859375c-35.816406-11.441406-68.433594-29.675781-96.9375-54.191406-4.1875-3.597657-10.5-3.125-14.101563 1.0625-3.601562 4.1875-3.125 10.5 1.0625 14.101562 30.550782 26.273438 65.503907 45.8125 103.890626 58.074219l8.171874 2.609375c1.011719.324219 2.035157.480469 3.042969.480469 4.234375 0 8.164063-2.710938 9.519531-6.960938 1.679688-5.261718-1.21875-10.886718-6.480468-12.566406zm0 0"/></svg>