<svg height="512pt" viewBox="0 -9 512 511" width="512pt" xmlns="http://www.w3.org/2000/svg"><path d="m106.175781 69.726562c0 22.882813-14.484375 42.386719-34.785156 49.84375-5.699219 2.101563-11.871094 3.242188-18.300781 3.242188-29.316406 0-53.089844-23.773438-53.089844-53.085938 0-29.316406 23.773438-53.089843 53.089844-53.089843 6.429687 0 12.601562 1.140625 18.300781 3.242187 20.300781 7.457032 34.785156 26.960938 34.785156 49.847656zm0 0" fill="#63a6fd"/><path d="m106.175781 250.660156c0 22.886719-14.484375 42.390625-34.785156 49.847656-5.699219 2.101563-11.871094 3.242188-18.300781 3.242188-29.316406 0-53.089844-23.773438-53.089844-53.089844 0-29.3125 23.773438-53.085937 53.089844-53.085937 6.429687 0 12.601562 1.140625 18.300781 3.242187 20.300781 7.457032 34.785156 26.960938 34.785156 49.84375zm0 0" fill="#d8cecc"/><path d="m106.175781 431.597656c0 22.886719-14.484375 42.390625-34.785156 49.847656-5.699219 2.101563-11.871094 3.242188-18.300781 3.242188-29.316406 0-53.089844-23.773438-53.089844-53.089844s23.773438-53.085937 53.089844-53.085937c6.429687 0 12.601562 1.136719 18.300781 3.242187 20.300781 7.457032 34.785156 26.960938 34.785156 49.84375zm0 0" fill="#d8cecc"/><path d="m495.777344 8.34375h-345.128906c-8.953126 0-16.210938 7.257812-16.210938 16.210938v90.339843c0 8.953125 7.257812 16.210938 16.210938 16.210938h345.128906c8.964844 0 16.222656-7.257813 16.222656-16.210938v-90.339843c0-8.953126-7.257812-16.210938-16.222656-16.210938zm0 0" fill="#fff5f4"/><path d="m495.777344 189.277344h-345.128906c-8.953126 0-16.210938 7.261718-16.210938 16.214844v90.339843c0 8.953125 7.257812 16.210938 16.210938 16.210938h345.128906c8.964844 0 16.222656-7.257813 16.222656-16.210938v-90.339843c0-8.953126-7.257812-16.214844-16.222656-16.214844zm0 0" fill="#fff5f4"/><path d="m495.777344 370.214844h-345.128906c-8.953126 0-16.210938 7.261718-16.210938 16.210937v90.34375c0 8.953125 7.257812 16.210938 16.210938 16.210938h345.128906c8.964844 0 16.222656-7.257813 16.222656-16.210938v-90.34375c0-8.949219-7.257812-16.210937-16.222656-16.210937zm0 0" fill="#fff5f4"/><path d="m71.390625 119.574219c-5.699219 2.101562-11.871094 3.242187-18.300781 3.242187-29.316406 0-53.089844-23.773437-53.089844-53.089844 0-29.316406 23.773438-53.089843 53.089844-53.089843 6.429687 0 12.601562 1.140625 18.300781 3.242187-20.300781 7.457032-34.785156 26.964844-34.785156 49.847656 0 22.882813 14.484375 42.386719 34.785156 49.847657zm0 0" fill="#1980f9"/><path d="m36.605469 250.664062c0-22.886718 14.484375-42.390624 34.785156-49.847656-5.699219-2.101562-11.871094-3.242187-18.300781-3.242187-29.316406 0-53.089844 23.773437-53.089844 53.089843 0 29.316407 23.773438 53.085938 53.089844 53.085938 6.429687 0 12.601562-1.136719 18.300781-3.242188-20.300781-7.457031-34.785156-26.960937-34.785156-49.84375zm0 0" fill="#c8bebc"/><path d="m71.390625 381.753906c-5.699219-2.101562-11.871094-3.242187-18.300781-3.242187-29.316406 0-53.089844 23.773437-53.089844 53.089843 0 29.316407 23.773438 53.085938 53.089844 53.085938 6.429687 0 12.601562-1.136719 18.300781-3.242188-20.300781-7.457031-34.785156-26.960937-34.785156-49.84375 0-22.886718 14.484375-42.390624 34.785156-49.847656zm0 0" fill="#c8bebc"/><path d="m182.527344 131.109375h-31.878906c-8.953126 0-16.210938-7.257813-16.210938-16.210937v-90.34375c0-8.953126 7.257812-16.210938 16.210938-16.210938h31.878906c-8.953125 0-16.210938 7.257812-16.210938 16.210938v90.34375c0 8.953124 7.257813 16.210937 16.210938 16.210937zm0 0" fill="#ebe0da"/><path d="m182.527344 312.046875h-31.878906c-8.953126 0-16.210938-7.257813-16.210938-16.210937v-90.34375c0-8.953126 7.257812-16.210938 16.210938-16.210938h31.878906c-8.953125 0-16.210938 7.257812-16.210938 16.210938v90.34375c0 8.953124 7.257813 16.210937 16.210938 16.210937zm0 0" fill="#ebe0da"/><path d="m182.527344 492.984375h-31.878906c-8.953126 0-16.210938-7.261719-16.210938-16.210937v-90.34375c0-8.953126 7.257812-16.210938 16.210938-16.210938h31.878906c-8.953125 0-16.210938 7.257812-16.210938 16.210938v90.34375c0 8.949218 7.257813 16.210937 16.210938 16.210937zm0 0" fill="#ebe0da"/><g fill="#1980f9"><path d="m174.175781 54.558594h57.523438c4.332031 0 7.84375-3.511719 7.84375-7.84375 0-4.332032-3.511719-7.84375-7.84375-7.84375h-57.523438c-4.332031 0-7.84375 3.511718-7.84375 7.84375 0 4.332031 3.511719 7.84375 7.84375 7.84375zm0 0"/><path d="m263.078125 54.558594h209.175781c4.332032 0 7.84375-3.511719 7.84375-7.84375 0-4.332032-3.511718-7.84375-7.84375-7.84375h-209.175781c-4.335937 0-7.847656 3.511718-7.847656 7.84375 0 4.332031 3.511719 7.84375 7.847656 7.84375zm0 0"/><path d="m174.175781 100.578125h240.859375c4.332032 0 7.84375-3.511719 7.84375-7.84375s-3.511718-7.84375-7.84375-7.84375h-240.859375c-4.332031 0-7.84375 3.511719-7.84375 7.84375s3.511719 7.84375 7.84375 7.84375zm0 0"/><path d="m174.175781 235.496094h198.71875c4.332031 0 7.84375-3.511719 7.84375-7.84375 0-4.332032-3.511719-7.84375-7.84375-7.84375h-198.71875c-4.332031 0-7.84375 3.511718-7.84375 7.84375 0 4.332031 3.511719 7.84375 7.84375 7.84375zm0 0"/><path d="m472.253906 219.808594h-67.984375c-4.332031 0-7.84375 3.511718-7.84375 7.84375 0 4.332031 3.511719 7.84375 7.84375 7.84375h67.984375c4.332032 0 7.84375-3.511719 7.84375-7.84375 0-4.332032-3.511718-7.84375-7.84375-7.84375zm0 0"/><path d="m174.175781 281.515625h60.453125c4.332032 0 7.84375-3.511719 7.84375-7.84375s-3.511718-7.84375-7.84375-7.84375h-60.453125c-4.332031 0-7.84375 3.511719-7.84375 7.84375s3.511719 7.84375 7.84375 7.84375zm0 0"/><path d="m472.253906 400.746094h-298.078125c-4.332031 0-7.84375 3.511718-7.84375 7.84375 0 4.332031 3.511719 7.84375 7.84375 7.84375h298.078125c4.332032 0 7.84375-3.511719 7.84375-7.84375 0-4.332032-3.511718-7.84375-7.84375-7.84375zm0 0"/><path d="m278.765625 446.765625h-104.589844c-4.332031 0-7.84375 3.511719-7.84375 7.84375s3.511719 7.84375 7.84375 7.84375h104.589844c4.332031 0 7.84375-3.511719 7.84375-7.84375s-3.511719-7.84375-7.84375-7.84375zm0 0"/><path d="m341.300781 446.765625h-31.160156c-4.332031 0-7.84375 3.511719-7.84375 7.84375s3.511719 7.84375 7.84375 7.84375h31.160156c4.335938 0 7.84375-3.511719 7.84375-7.84375s-3.511719-7.84375-7.84375-7.84375zm0 0"/></g><path d="m111.175781 1.902344c-3.558593-2.472656-8.445312-1.589844-10.917969 1.96875l-53.5 77.066406-17.601562-15.898438c-3.210938-2.902343-8.171875-2.652343-11.078125.566407-2.902344 3.214843-2.652344 8.171875.5625 11.078125l24.214844 21.871094c1.449219 1.308593 3.328125 2.023437 5.257812 2.023437.300781 0 .597657-.015625.898438-.050781 2.242187-.257813 4.261719-1.46875 5.546875-3.320313l58.585937-84.390625c2.472657-3.558594 1.589844-8.445312-1.96875-10.914062zm0 0" fill="#274c93"/></svg>