<svg height="512pt" viewBox="0 0 512 512.0001" width="512pt" xmlns="http://www.w3.org/2000/svg"><path d="m494.488281 269.210938c-28.003906-20.859376-67.621093-15.0625-88.484375 12.945312-43.253906 58.078125-101.042968 102.34375-167.996094 128.898438-11.953124 4.738281-21.652343 13.855468-26.914062 25.585937l-17.839844 39.746094 32.066406 19.574219c10.894532 6.644531 24.261719 7.90625 36.171876 3.324218 41.714843-16.050781 81.113281-37.433594 117.363281-63.726562 42.210937-30.617188 79.414062-67.355469 110.578125-109.191406 11.601562-15.578126 14.949218-34.75 10.824218-52.285157-1.808593-1.710937-3.722656-3.347656-5.769531-4.871093zm0 0" fill="#c9f3ff"/><path d="m356.582031 189.308594 19.046875-19.605469-29.851562-49.386719c-3.171875-5.246094-7.078125-9.921875-11.542969-13.921875-31.648437-4.363281-62.488281-12.59375-91.957031-24.511719-43.734375-10.5625-85.386719-28.730468-123.367188-53.972656-16.855468 2.234375-32.769531 11.210938-43.351562 26.195313-20.148438 28.523437-13.355469 67.980469 15.167968 88.128906 35.050782 24.757813 72.925782 44.953125 112.882813 60.25 25.621094 6.691406 51.683594 11.398437 78 14.070313 27.847656 2.832031 55.46875-7.167969 74.972656-27.246094zm0 0" fill="#c9f3ff"/><path d="m482.464844 229.859375c-32.382813-24.121094-78.355469-17.398437-102.480469 14.988281-41.949219 56.328125-98.542969 99.75-163.664063 125.578125-14.539062 5.765625-26.027343 16.699219-32.351562 30.789063l-23.136719 51.550781c-9.121093 1.398437-18.3125 2.496094-27.574219 3.285156l21.398438-42.734375c2.472656-4.9375.476562-10.945312-4.464844-13.417968-4.9375-2.476563-10.945312-.476563-13.417968 4.460937l-26.609376 53.140625-29.148437 1.539062c-5.515625.292969-9.746094 5-9.457031 10.515626.28125 5.332031 4.695312 9.46875 9.976562 9.46875.179688 0 .359375-.003907.539063-.011719l31.214843-1.652344 41.511719 32.511719c1.828125 1.433594 4 2.128906 6.160157 2.128906 2.96875 0 5.90625-1.316406 7.878906-3.835938 3.402344-4.347656 2.640625-10.632812-1.707032-14.039062l-24.164062-18.921875c7.992188-.84375 15.960938-1.910156 23.898438-3.203125l53.246093 32.496094c8.109375 4.949218 17.425781 7.476562 26.757813 7.476562 6.179687 0 12.367187-1.109375 18.214844-3.359375 42.496093-16.347656 82.75-38.203125 119.640624-64.960937 43.03125-31.210938 80.957032-68.664063 112.726563-111.316406 24.121094-32.382813 17.394531-78.355469-14.988281-102.476563zm-280.25 179.542969c4.179687-9.3125 11.808594-16.550782 21.476562-20.386719 22.632813-8.976563 44.277344-19.980469 64.71875-32.8125l-12.007812 60.738281c-29.042969 14.007813-59.796875 24.578125-91.675782 31.425782zm170.769531 18.058594c-35.484375 25.738281-74.207031 46.761718-115.082031 62.488281-8.921875 3.433593-19.15625 2.488281-27.371094-2.527344l-34.679688-21.164063c36.667969-8.570312 72.265626-21.910156 105.335938-39.625 16.425781-8.800781 32.292969-18.71875 47.476562-29.625l52.839844 8.152344c-9.226562 7.753906-18.730468 15.203125-28.519531 22.300782zm108.429687-107.070313c-18.160156 24.378906-38.421874 46.976563-60.550781 67.609375-.40625-.117188-.820312-.21875-1.25-.285156l-49.003906-7.558594c27.082031-22.207031 51.503906-47.6875 72.34375-75.667969 3.300781-4.429687 2.382813-10.691406-2.042969-13.992187-4.429687-3.300782-10.695312-2.382813-13.992187 2.046875-24.5 32.890625-53.375 61.484375-85.539063 85.21875-.769531.421875-1.472656.945312-2.105468 1.550781-12.882813 9.378906-26.285157 17.972656-40.136719 25.761719l12.824219-64.855469c31.839843-23.328125 60.207031-51.386719 84.0625-83.421875 17.539062-23.542969 50.953124-28.429687 74.496093-10.894531 23.539063 17.53125 28.425781 50.949218 10.894531 74.488281zm0 0"/><path d="m131.496094 188.660156c13.488281 5.632813 27.21875 10.726563 41.179687 15.222656 35.039063 11.296876 71.351563 18.90625 107.921875 22.621094 3.507813.355469 7.003906.535156 10.480469.53125 27.359375 0 53.394531-10.910156 72.675781-30.757812l16.292969-16.773438c6.015625-.257812 12.035156-.617187 18.046875-1.097656l-12.851562 19.410156c-3.050782 4.605469-1.789063 10.808594 2.816406 13.859375 1.699218 1.125 3.617187 1.664063 5.511718 1.664063 3.242188 0 6.421876-1.574219 8.347657-4.480469l22.003906-33.226563c4.363281-.582031 8.726563-1.203124 13.078125-1.90625l33.34375-5.367187c5.449219-.878906 9.15625-6.011719 8.28125-11.464844-.882812-5.453125-6.011719-9.164062-11.464844-8.28125l-33.339844 5.371094c-3.328124.535156-6.65625 1.03125-9.988281 1.496094l-28.601562-56.957031c-2.480469-4.9375-8.492188-6.929688-13.425781-4.449219-4.933594 2.480469-6.925782 8.488281-4.449219 13.425781l25.328125 50.433594c-7.1875.667968-14.382813 1.164062-21.578125 1.5l-26.769531-44.289063c-11.644532-19.269531-31.859376-31.933593-54.074219-33.882812-66.3125-5.820313-130.21875-29.273438-184.804688-67.828125-15.976562-11.285156-35.394531-15.671875-54.671875-12.355469-19.277344 3.320313-36.109375 13.945313-47.394531 29.925781-23.296875 32.980469-15.414063 78.769532 17.566406 102.066406 31.28125 22.09375 64.769531 40.609376 99.949219 55.34375.195312.089844.390625.167969.589844.246094zm151.125 17.949219c-35.179688-3.574219-70.105469-10.894531-103.8125-21.757813-6.339844-2.046874-12.628906-4.21875-18.875-6.507812l46.070312-22.585938c47.050782 15.285157 96.234375 23.445313 145.765625 24.15625l-2.359375 2.425782c-17.449218 17.960937-41.792968 26.808594-66.789062 24.269531zm54.597656-81.121094 20.828125 34.457031c-24.097656-.039062-48.128906-1.921874-71.871094-5.605468l-26.445312-58.511719c12.808593 2.421875 25.753906 4.210937 38.785156 5.355469 15.878906 1.394531 30.347656 10.480468 38.703125 24.304687zm-307.492188-82.949219c8.203126-11.613281 20.4375-19.335937 34.453126-21.75 3.050781-.523437 6.105468-.785156 9.144531-.785156 10.898437 0 21.511719 3.347656 30.597656 9.765625 39.886719 28.171875 84.503906 48.679688 131.417969 60.644531l26.9375 59.609376c-50.1875-10.429688-98.71875-28.976563-143.414063-55.25-4.761719-2.796876-10.890625-1.207032-13.6875 3.554687s-1.207031 10.890625 3.554688 13.6875c22.792969 13.398437 46.550781 24.855469 70.988281 34.355469l-44.878906 22.003906c-32.457032-13.90625-63.378906-31.1875-92.339844-51.640625-23.980469-16.9375-29.707031-50.21875-12.773438-74.195313zm0 0"/><path d="m89.945312 81.429688c0 5.519531-4.476562 9.996093-10 9.996093-5.523437 0-10-4.476562-10-9.996093 0-5.523438 4.476563-10 10-10 5.523438 0 10 4.476562 10 10zm0 0"/></svg>