<svg height="512pt" viewBox="0 -102 512.00003 512" width="512pt" xmlns="http://www.w3.org/2000/svg"><path d="m210.648438 169.761719-122.3125 38.464843 149.5 78.371094 267.164062-82.570312-107.332031-56.597656zm0 0" fill="#ffb954"/><path d="m502 107.757812-144-75.488281-296.664062 91.6875 64.304687 33.710938c3.988281 2.089843 8.019531 4.070312 12.070313 5.992187 61.753906 17.613282 127.785156 17.1875 190.0625-2.058594zm0 0" fill="#72d8ff"/><path d="m300.320312 168.796875.574219-.886719-21.941406-6.421875c-28.140625-8.234375-51.863281-27.308593-65.953125-53.027343-20.195312 25.835937-51.164062 40.933593-83.960938 40.933593h-29.8125l-.230468.59375c63.546875 26.945313 133.902344 33.511719 201.324218 18.808594zm0 0" fill="#fff"/><path d="m218.929688 49.925781c2.628906 0 5.210937-1.070312 7.070312-2.929687 1.859375-1.863282 2.929688-4.441406 2.929688-7.070313 0-2.632812-1.070313-5.210937-2.929688-7.070312s-4.441406-2.929688-7.070312-2.929688c-2.628907 0-5.210938 1.070313-7.070313 2.929688s-2.929687 4.4375-2.929687 7.070312c0 2.628907 1.070312 5.207031 2.929687 7.070313 1.859375 1.859375 4.441406 2.929687 7.070313 2.929687zm0 0"/><path d="m506.644531 194.710938-93.667969-49.101563 91.976563-28.425781c3.867187-1.195313 6.636719-4.605469 7.003906-8.640625.371094-4.03125-1.726562-7.890625-5.3125-9.769531l-186.242187-97.628907c-2.339844-1.2265622-5.070313-1.476562-7.59375-.699219l-58.863282 18.179688c-5.277343 1.628906-8.234374 7.226562-6.605468 12.503906 1.632812 5.277344 7.230468 8.234375 12.507812 6.605469l54.921875-16.960937 161.121094 84.460937-92 28.433594h-.003906l-50.863281 15.71875c-1.007813.148437-1.992188.449219-2.925782.90625l-5.277344 1.628906c-7.320312 2.261719-14.6875 4.25-22.078124 5.984375l-20.980469-6.140625c-25.78125-7.546875-47.085938-24.675781-59.992188-48.234375-1.617187-2.949219-4.605469-4.890625-7.957031-5.164062-3.355469-.277344-6.621094 1.15625-8.691406 3.808593-18.425782 23.574219-46.15625 37.09375-76.082032 37.09375h-29.429687c-6.964844-3.054687-13.855469-6.351562-20.65625-9.917969l-42.839844-22.457031 147.308594-45.519531c5.273437-1.628906 8.230469-7.230469 6.601563-12.507812-1.632813-5.277344-7.234376-8.230469-12.507813-6.601563l-170.46875 52.675781c-3.867187 1.195313-6.636719 4.609375-7.0039062 8.640625-.3710938 4.03125 1.7265622 7.890625 5.3125002 9.769531l64.308593 33.710938c10.152344 5.324219 20.503907 10.109375 31.035157 14.363281l-93.699219 29.46875c-3.855469 1.210938-6.601562 4.625-6.9609375 8.648438-.3593745 4.023437 1.7382815 7.871093 5.3164065 9.746093l186.242187 97.628907c1.449219.757812 3.042969 1.144531 4.644532 1.144531.992187 0 1.988281-.144531 2.953124-.445312l305.757813-94.496094c3.867187-1.195313 6.636719-4.605469 7.003906-8.640625.371094-4.035157-1.726562-7.890625-5.3125-9.769531zm-96.527343-28.019532-79.320313 79.320313-99.734375 30.824219 108.554688-108.554688 46.261718-14.296875zm-322.734376 63.015625 54.601563-54.601562c17.671875 4.632812 35.742187 7.851562 54.132813 9.628906l-66.902344 66.902344zm135.460938-43.414062c2.21875.042969 4.4375.078125 6.652344.078125 23.992187 0 47.816406-2.527344 71.28125-7.539063l-106.765625 106.769531-46.238281-24.238281zm-11.214844-61.300781c12.34375 17.472656 28.96875 31.171874 48.402344 39.972656-36.355469 3.546875-72.871094.875-108.242188-7.902344 22.679688-4.457031 43.433594-15.539062 59.839844-32.070312zm-102.59375 54.777343-40.207031 40.210938-32.867187-17.230469zm262.695313 53.589844 56.945312-56.941406 47.214844 24.75zm0 0"/></svg>